<svg xmlns="http://www.w3.org/2000/svg" xmlns:xlink="http://www.w3.org/1999/xlink" version="1.1" id="Capa_1" x="0px" y="0px" viewBox="0 0 1014.51 149.27" style="enable-background:new 0 0 1014.51 149.27;" xml:space="preserve">
  <style type="text/css">
    .st0 {
      fill: #4B22F4;
    }
  </style>
  <g id="Logo_Blanco_00000181065870306890838170000013252846978117617843_">
    <polygon class="st0" points="968.33,15.39 968.33,58.5 922.15,58.5 922.15,101.6 968.33,101.6 968.33,147.78 1014.51,147.78    1014.51,15.39  " />
    <rect x="879.05" y="101.6" class="st0" width="46.18" height="43.1" />
    <rect x="879.05" y="15.39" class="st0" width="46.18" height="43.1" />
    <g>
      <path class="st0" d="M56.47,120.18c5.24,0,9.7-1.41,13.38-4.25c3.68-2.83,5.95-6.58,6.79-11.25h32.49    c-1.28,13.31-6.87,24.07-16.78,32.27c-9.63,8.21-21.66,12.32-36.09,12.32c-16.28,0-29.73-5.02-40.34-15.08    C5.31,124.29,0,111.34,0,95.34c0-15.71,5.31-28.52,15.92-38.43c10.76-10.19,24.2-15.29,40.34-15.29    c14.15,0,26.19,4.18,36.09,12.53c9.91,8.21,15.5,18.9,16.78,32.06H76.65c-0.85-4.67-3.11-8.42-6.79-11.25    c-3.68-2.83-8.14-4.25-13.38-4.25c-7.08,0-12.77,2.27-17.09,6.8c-4.32,4.53-6.48,10.48-6.48,17.83c0,7.36,2.16,13.34,6.48,17.94    C43.7,117.88,49.4,120.18,56.47,120.18" />
      <path class="st0" d="M189.39,43.1v32.13c-14.74,0.54-26.03,4.67-33.87,12.37v57.1h-33.87V46.18h33.87v9.72    c9.56-8.19,20.96-12.29,34.21-12.29" />
      <path class="st0" d="M306,92.23c0,5.58-0.22,9.74-0.65,12.45h-74.1c3.29,11.17,11.09,16.75,23.41,16.75c7.3,0,12.6-2.5,15.89-7.52    h34.58c-2.58,10.74-8.48,19.26-17.72,25.56c-9.23,6.3-20.29,9.45-33.18,9.45c-16.9,0-30.64-5.08-41.24-15.25    c-10.45-10.02-15.67-23.12-15.67-39.3c0-15.9,5.08-28.92,15.25-39.09c10.45-10.16,23.91-15.25,40.37-15.25    c15.18,0,27.85,4.87,38.02,14.6C300.99,64.24,306,76.76,306,92.23 M252.69,69.61c-11.07,0-17.96,5.53-20.7,16.59h40.37    C270.59,75.14,264.03,69.61,252.69,69.61" />
      <path class="st0" d="M381.17,42.18c12.56,0,22.74,4.17,30.53,12.5c7.78,8.19,11.68,19.26,11.68,33.19v56.84h-30.79V93.28    c0-6.83-1.64-12.02-4.91-15.57c-3.27-3.55-7.83-5.33-13.67-5.33c-6.4,0-12.52,3.28-18.37,9.84v62.49h-33.87V0h33.87v51.81    c8.47-6.42,17.55-9.63,27.25-9.63" />
      <path class="st0" d="M552.69,46.18v98.52h-33.87v-5.49c-8.08,5.01-17.35,7.52-27.8,7.52c-13.94,0-25.79-4.94-35.54-14.83    c-9.9-10.02-14.84-22.21-14.84-36.56c0-14.36,4.94-26.54,14.84-36.57c9.75-9.88,21.6-14.83,35.54-14.83    c10.45,0,19.72,2.51,27.8,7.52v-5.28H552.69z M498.33,119.42c8.06,0,14.89-3.07,20.49-9.22V79.26c-5.6-6.15-12.43-9.22-20.49-9.22    c-6.69,0-12.29,2.39-16.8,7.17c-4.51,4.78-6.76,10.66-6.76,17.62c0,6.96,2.25,12.8,6.76,17.52    C486.04,117.07,491.64,119.42,498.33,119.42" />
      <path class="st0" d="M633.64,42.18c12.56,0,22.74,4.17,30.53,12.5c7.79,8.19,11.68,19.26,11.68,33.19v56.84h-30.79V93.28    c0-6.83-1.64-12.02-4.91-15.57c-3.27-3.55-7.83-5.33-13.67-5.33c-6.4,0-12.52,3.28-18.37,9.84v62.49h-33.87V46.18h33.87v5.63    c8.47-6.42,17.55-9.63,27.25-9.63" />
      <path class="st0" d="M802.08,46.18v98.52h-33.87v-5.49c-8.08,5.01-17.35,7.52-27.8,7.52c-13.94,0-25.79-4.94-35.54-14.83    c-9.9-10.02-14.84-22.21-14.84-36.56c0-14.36,4.94-26.54,14.84-36.57c9.75-9.88,21.6-14.83,35.54-14.83    c10.45,0,19.72,2.51,27.8,7.52v-5.28H802.08z M750.8,119.42c8.06,0,14.89-3.07,20.49-9.22V79.26c-5.6-6.15-12.43-9.22-20.49-9.22    c-6.7,0-12.29,2.39-16.8,7.17c-4.51,4.78-6.76,10.66-6.76,17.62c0,6.96,2.25,12.8,6.76,17.52    C738.51,117.07,744.1,119.42,750.8,119.42" />
    </g>
  </g>
</svg>